<svg version="1" xmlns="http://www.w3.org/2000/svg" width="933.333" height="933.333" viewBox="0 0 700.000000 700.000000"><path d="M55.5 2.4C41.1 9.7 40.4 30.2 54.2 38c4.2 2.3 5.2 2.6 13.5 3.5 19.2 2 33.8 13.5 40.1 31.5 1.3 3.8 1.6 12.9 1.8 60 .3 54 .9 83.4 1.8 91.5.5 3.8 1.7 11.9 2.1 14 .2.5.8 3.7 1.5 7 10.3 51 39.5 99.7 80.5 134.1 36.5 30.7 82.6 50.7 126.5 55 3 .3 6 .7 6.5.8.7.2 1 37.9.9 111.2-.1 61-.2 111.2-.3 111.6 0 .5-10.8.8-24 .8-29.5 0-33.1 1-38.7 10.5-5.2 8.9-2.3 20.8 6.5 27l4.3 3 70.6.3c48.7.2 71.9 0 74.4-.8 14.5-4.2 18.9-24.2 7.6-34.7-5.2-4.9-8.1-5.3-34.3-5.3-18.9 0-24.5-.3-24.5-1.3-.1-.6-.1-50.6-.1-111.1-.1-84.3.2-110 1.1-110.6.7-.4 4.2-1 7.9-1.4 26.3-2.7 60.5-13.8 85.4-27.7 65.3-36.6 109.2-98.3 121.7-171.2 2.9-17.1 3.2-25.9 3.4-93.8.2-47.4.5-63.5 1.5-66.9 5.1-17.9 20.3-30.9 38.9-33.1 10.4-1.3 13.5-2.2 17.6-5.4 10.6-8 10-25-1.1-32.6-5.5-3.8-13.6-4.8-24.9-3-22.1 3.6-41.2 15-55.6 33.1-7.3 9.1-14.7 25.8-16.2 36.5-.4 2.3-.8 5.2-1.1 6.5-.3 1.4-.5 30.8-.6 65.5-.1 34.6-.5 67.3-1 72.5-4.8 52.3-31.8 102.4-72.9 135.7-22.2 17.9-50.2 31.9-76.8 38.4-10.2 2.4-26.3 5.2-26.9 4.5-.3-.3-.6-321.2-.3-348.4V41h8.3c5.8 0 9.4-.6 12.2-1.9 12.3-5.6 15.8-21.5 7-31.9-6.2-7.1-6.9-7.3-48.6-7.2-38 .1-39.2.2-45.1 4.3-10.2 6.9-10.5 24.6-.6 32 4.8 3.5 6.4 4 16.3 4.6l9 .6v352.6l-5-.6c-9.9-1-25.8-4.6-36.2-8.1-9.2-3-9.7-3.2-18.6-7.3-3.7-1.7-7-3.1-7.3-3.1-1.1 0-17.5-9.7-24.9-14.9-39.8-27.3-68.7-68.5-80.1-114.1-2.6-10.4-2.7-10.9-4.5-22.5-1.7-11.7-1.7-13.3-1.9-80.5-.1-64.5-.5-71.4-4.6-83.6-8.8-25.9-28.9-46-54.9-54.9C84.7 2.1 77.9.9 69 .4c-7.6-.4-9-.2-13.5 2z"/></svg>